<svg width="427" height="427" viewBox="0 0 427 427" fill="none" xmlns="http://www.w3.org/2000/svg">
<path d="M419.995 267.741C432.276 220.985 428.327 171.446 408.793 127.227C389.259 83.0085 355.296 46.7279 312.462 24.3206C269.627 1.91341 220.456 -5.29385 172.993 3.87791C125.53 13.0497 82.5838 38.0574 51.1812 74.8102C19.7786 111.563 1.7783 157.885 0.124913 206.198C-1.52847 254.511 13.263 301.955 42.0795 340.768C70.8961 379.582 112.032 407.467 158.757 419.862C205.482 432.258 255.031 428.429 299.297 409.002L278.414 361.416C244.922 376.114 207.434 379.011 172.082 369.633C136.73 360.255 105.607 339.157 83.8042 309.791C62.0018 280.425 50.8107 244.529 52.0616 207.975C53.3125 171.422 66.9315 136.375 90.6905 108.568C114.45 80.7611 146.942 61.8404 182.853 54.9011C218.763 47.9618 255.965 53.4148 288.374 70.3679C320.782 87.3211 346.478 114.771 361.257 148.227C376.037 181.682 379.025 219.163 369.733 254.538L419.995 267.741Z" fill="white" fill-opacity="0.85"/>
<path d="M228.98 329.839C255.322 326.107 279.618 313.546 297.893 294.211C316.168 274.876 327.34 249.911 329.582 223.4C331.824 196.89 325.002 170.403 310.233 148.274C295.465 126.145 273.623 109.683 248.281 101.581C222.94 93.4788 195.599 94.217 170.732 103.674C145.865 113.132 124.943 130.748 111.39 153.642C97.8363 176.536 92.4537 203.352 96.1226 229.703C99.7914 256.054 112.294 280.38 131.586 298.701L162.352 266.305C150.395 254.95 142.646 239.874 140.373 223.542C138.099 207.211 141.435 190.591 149.835 176.402C158.235 162.213 171.201 151.295 186.613 145.433C202.025 139.572 218.97 139.114 234.676 144.136C250.382 149.157 263.919 159.36 273.072 173.075C282.226 186.79 286.454 203.206 285.064 219.636C283.675 236.066 276.751 251.539 265.424 263.522C254.098 275.506 239.04 283.291 222.714 285.603L228.98 329.839Z" fill="white" fill-opacity="0.85"/>
</svg>
