<svg viewBox="0 0 20 20" fill="none" xmlns="http://www.w3.org/2000/svg" >
    <g>
        <path fill-rule="evenodd" clip-rule="evenodd" d="M6.5 8.25C6.5 6.45507 7.95507 5 9.75 5C10.9422 5 11.9855 5.64235 12.5511 6.60037C11.6315 6.79794 10.816 7.27649 10.2001 7.94058C9.91843 8.24428 9.93629 8.71882 10.24 9.00049C10.5437 9.28216 11.0182 9.2643 11.2999 8.9606C11.8488 8.36876 12.6308 8 13.5001 8C13.5169 8 13.5336 7.99945 13.5502 7.99835C13.5667 7.99999 13.5833 8.00109 13.6001 8.00163C15.2103 8.05416 16.5 9.37662 16.5 11C16.5 12.6568 15.1569 14 13.5 14H13.5H13.5H5.75242L5.75077 14H5.75C4.50736 14 3.5 12.9926 3.5 11.75C3.5 10.5079 4.50641 9.50095 5.74823 9.5L5.77718 9.50015C5.99293 9.50124 6.19869 9.40936 6.34191 9.248C6.48512 9.08664 6.5519 8.87141 6.5252 8.65732C6.50859 8.5242 6.5 8.38827 6.5 8.25ZM9.75 3.5C7.18545 3.5 5.09558 5.53238 5.00319 8.07437C3.28992 8.42059 2 9.93466 2 11.75C2 13.8211 3.67893 15.5 5.75 15.5L5.75165 15.5H5.75242H13.5H13.5H13.5H13.5C15.9853 15.5 18 13.4853 18 11C18 8.74841 16.3466 6.88327 14.1874 6.55221C13.5041 4.76768 11.7759 3.5 9.75 3.5Z" fill="#4E79EB">
        </path>
    </g>
</svg>